HIERARCHY
ROOT RootJoint
{
    OFFSET   0.000000   0.000000   0.000000
    CHANNELS 6 Xposition Yposition Zposition Xrotation Yrotation Zrotation
    JOINT pelvis_lowerback
    {
        OFFSET   0.000000   0.093605   0.000000
        CHANNELS 3 Xrotation Yrotation Zrotation
        JOINT lowerback_torso
        {
            OFFSET   0.000000   0.100000   0.000000
            CHANNELS 3 Xrotation Yrotation Zrotation
            JOINT torso_head
            {
                OFFSET   0.000000   0.282350   0.000000
                CHANNELS 3 Xrotation Yrotation Zrotation
                End Site
                {
                    OFFSET   0.000000   0.192650   0.000000
                }
            }
            JOINT rTorso_Clavicle
            {
                OFFSET  -0.001000   0.157500   0.000000
                CHANNELS 3 Xrotation Yrotation Zrotation
                JOINT rShoulder
                {
                    OFFSET  -0.117647   0.000000   0.000000
                    CHANNELS 3 Xrotation Yrotation Zrotation
                    JOINT rElbow
                    {
                        OFFSET  -0.245000   0.000000   0.000000
                        CHANNELS 3 Xrotation Yrotation Zrotation
                        JOINT rWrist
                        {
                            OFFSET  -0.240000   0.000000   0.000000
                            CHANNELS 3 Xrotation Yrotation Zrotation
                            End Site
                            {
                                OFFSET  -0.116353  -0.002500   0.000000
                            }
                        }
                    }
                }
            }
            JOINT lTorso_Clavicle
            {
                OFFSET   0.001000   0.157500   0.000000
                CHANNELS 3 Xrotation Yrotation Zrotation
                JOINT lShoulder
                {
                    OFFSET   0.117647   0.000000   0.000000
                    CHANNELS 3 Xrotation Yrotation Zrotation
                    JOINT lElbow
                    {
                        OFFSET   0.245000   0.000000   0.000000
                        CHANNELS 3 Xrotation Yrotation Zrotation
                        JOINT lWrist
                        {
                            OFFSET   0.240000   0.000000   0.000000
                            CHANNELS 3 Xrotation Yrotation Zrotation
                            End Site
                            {
                                OFFSET   0.116353  -0.002500   0.000000
                            }
                        }
                    }
                }
            }
        }
    }
    JOINT rHip
    {
        OFFSET  -0.100000  -0.051395   0.000000
        CHANNELS 3 Xrotation Yrotation Zrotation
        JOINT rKnee
        {
            OFFSET   0.000000  -0.410000   0.000000
            CHANNELS 3 Xrotation Yrotation Zrotation
            JOINT rAnkle
            {
                OFFSET   0.000000  -0.390000   0.000000
                CHANNELS 3 Xrotation Yrotation Zrotation
                JOINT rToeJoint
                {
                    OFFSET   0.000000  -0.050000   0.130000
                    CHANNELS 3 Xrotation Yrotation Zrotation
                    End Site
                    {
                        OFFSET  -0.010000   0.002000   0.060000
                    }
                }
            }
        }
    }
    JOINT lHip
    {
        OFFSET   0.100000  -0.051395   0.000000
        CHANNELS 3 Xrotation Yrotation Zrotation
        JOINT lKnee
        {
            OFFSET   0.000000  -0.410000   0.000000
            CHANNELS 3 Xrotation Yrotation Zrotation
            JOINT lAnkle
            {
                OFFSET   0.000000  -0.390000   0.000000
                CHANNELS 3 Xrotation Yrotation Zrotation
                JOINT lToeJoint
                {
                    OFFSET   0.000000  -0.050000   0.130000
                    CHANNELS 3 Xrotation Yrotation Zrotation
                    End Site
                    {
                        OFFSET   0.010000   0.002000   0.060000
                    }
                }
            }
        }
    }
}
MOTION
Frames: 12
Frame Time:   0.008333
 -2.376719   0.925631   3.975860   0.000000   0.000000   0.000000   0.000000   0.000000   0.000000   0.000000   0.000000   0.000000   0.000000   0.000000   0.000000   0.000000   0.000000   0.000000   0.000000   0.000000   0.000000   0.000000   0.000000   0.000000   0.000000   0.000000   0.000000   0.000000   0.000000   0.000000   0.000000   0.000000   0.000000   0.000000   0.000000   0.000000   0.000000   0.000000   0.000000   0.000000   0.000000   0.000000   0.000000   0.000000   0.000000   0.000000   0.000000   0.000000   0.000000   0.000000   0.000000   0.000000   0.000000   0.000000   0.000000   0.000000   0.000000   0.000000   0.000000   0.000000   0.000000   0.000000   0.000000
 -2.377003   0.925797   3.975248  -0.431640   0.633956  -0.382109   0.364219  -0.217409   0.310495   0.380924  -0.056093   0.228142  -0.127832   0.295738   0.081849   0.289623  -0.703752  -0.593507   1.317104  -0.060812   2.408747   0.035697   2.045793  -0.034795   0.220033  -0.814039  -2.102682   0.114879  -0.064405  -0.292355   1.700274  -0.105448  -1.941500   0.065573  -3.482764   0.066567   0.117877   1.736541   2.419638  -0.183673  -0.068476   0.527558   1.442454  -0.001728   0.007166  -0.646615   0.102509   0.029261  -0.183392   0.000285  -0.001070  -0.361468  -0.114009   0.440745   2.984444  -0.001182   0.013649  -2.842543   0.059063  -0.493963   0.081207   0.000300   0.000409
 -2.377432   0.926086   3.974689  -1.015546   1.485316  -0.788812   0.749762  -0.522044   0.625109   0.873407  -0.244556   0.473148  -0.203324   0.597152   0.203983   0.574792  -1.319165  -0.660451   2.615210   0.008572   5.229122   0.081229   4.029014  -0.060906   0.500975  -1.048501  -3.646094   0.232100  -0.386637  -1.178638   3.287997  -0.514251  -4.255764   0.158353  -7.051018   0.119262   0.301808   2.378999   4.258214  -0.413332  -0.107450   1.155374   2.967691  -0.003653   0.016799  -1.241658   0.205452   0.060238  -0.358368   0.000602  -0.002267  -0.463795  -0.210984   0.920335   6.344283  -0.000447   0.033328  -5.489614   0.138990  -0.955428   0.083531   0.000247   0.000344
 -2.377942   0.926168   3.974236  -1.616385   2.431569  -1.156974   1.107693  -0.901579   0.899095   1.349796  -0.528926   0.684154  -0.273171   0.881937   0.331258   0.841022  -1.818029  -0.350135   3.865639   0.199758   8.275821   0.125483   5.905201  -0.077963   0.785029  -1.047476  -4.578194   0.326474  -0.887301  -2.431419   4.735705  -1.114361  -6.721826   0.250260 -10.448427   0.154161   0.501538   2.457576   5.392652  -0.768203  -0.134837   1.795565   4.384851  -0.005025   0.025301  -1.796169   0.303676   0.091246  -0.518795   0.000872  -0.003270  -0.371875  -0.298032   1.378478   9.797992   0.002781   0.052693  -7.953180   0.233989  -1.382876   0.102093   0.000254   0.000432
 -2.378469   0.925791   3.973930  -2.198192   3.403364  -1.480874   1.432877  -1.333046   1.132039   1.785753  -0.876741   0.862519  -0.346671   1.148008   0.450199   1.089933  -2.233989   0.239622   5.017200   0.482159  11.336158   0.162354   7.672197  -0.087215   1.065574  -0.922490  -4.989179   0.395121  -1.487075  -3.907611   6.050313  -1.838100  -9.234003   0.329465 -13.656537   0.175891   0.705151   2.259333   5.970522  -1.257710  -0.159772   2.422913   5.665088  -0.005774   0.031533  -2.315477   0.396227   0.121930  -0.672350   0.001091  -0.004064  -0.108299  -0.376428   1.811038  13.242455   0.007939   0.068657 -10.248904   0.339655  -1.777036   0.124367   0.000267   0.000544
 -2.378980   0.924771   3.973792  -2.742479   4.362629  -1.763146   1.720117  -1.799357   1.327277   2.177660  -1.267077   1.008417  -0.422865   1.395974   0.560811   1.322972  -2.599456   0.996449   6.074560   0.825763  14.335929   0.189767   9.329907  -0.090617   1.337125  -0.734450  -5.045199   0.438952  -2.131408  -5.507529   7.240656  -2.638481 -11.723578   0.391281 -16.673624   0.188274   0.904528   1.917089   6.147763  -1.876225  -0.188579   3.025686   6.810267  -0.006038   0.035403  -2.802294   0.482867   0.152045  -0.819615   0.001256  -0.004638   0.326312  -0.445141   2.220311  16.537292   0.013912   0.079482 -12.387785   0.452800  -2.139402   0.149724   0.000282   0.000664
 -2.379457   0.922977   3.973807  -3.245128   5.295907  -2.008768   1.975357  -2.291752   1.488604   2.529977  -1.688987   1.123808  -0.500322   1.626836   0.663662   1.543028  -2.937779   1.842215   7.044389   1.205565  17.230339   0.207604  10.879948  -0.089817   1.595800  -0.525103  -4.870543   0.460127  -2.787262  -7.160704   8.315921  -3.482825 -14.145955   0.435044 -19.504218   0.194264   1.094217   1.501888   6.050714  -2.605846  -0.225701   3.598985   7.830654  -0.005976   0.037293  -3.258644   0.563621   0.181383  -0.959855   0.001371  -0.005008   0.901154  -0.503966   2.609110  19.670131   0.019887   0.085697 -14.382196   0.570705  -2.472068   0.172576   0.000283   0.000735
 -2.380265   0.919943   3.973665  -3.579690   5.966000  -2.354461   2.211492  -2.604504   1.715469   2.782749  -2.049583   1.183255  -0.770438   1.762127   0.635703   1.967044  -3.152997   2.243252   8.460718   1.582046  20.037343   0.227821  12.791531  -0.104524   1.786235  -0.424907  -4.072258   0.650190  -3.286897  -8.131356   9.265942  -4.320523 -16.581383   0.476619 -22.742298   0.209300   1.265729   1.077461   5.344208  -3.603495  -0.377599   4.232440   8.975203  -0.006072   0.036479  -3.360203   0.584326   0.238186  -0.990964   0.001180  -0.004184   1.595696  -0.491924   3.240978  21.731312   0.018728   0.080185 -15.293545   0.861680  -2.693488  -0.002403   0.000161  -0.000966
 -2.381227   0.915813   3.973430  -3.854856   6.595037  -2.690946   2.462155  -2.899201   1.898809   3.010183  -2.382759   1.217673  -1.034058   1.884120   0.591759   2.363006  -3.338222   2.483896   9.765933   2.000881  22.563482   0.233649  14.589862  -0.112849   1.997088  -0.216015  -3.308199   0.809271  -3.758213  -8.865826  10.117636  -5.138922 -18.734451   0.493226 -25.787367   0.217631   1.453847   0.488448   4.719310  -4.618652  -0.553015   4.804430  10.031645  -0.005681   0.034863  -3.450153   0.600338   0.290912  -0.990115   0.000940  -0.003344   2.239634  -0.487851   3.961217  23.532244   0.015936   0.074077 -16.139855   1.140276  -2.892412  -0.109140   0.000203  -0.001665
 -2.382154   0.910954   3.973004  -4.140918   7.072705  -2.996534   2.772077  -3.126967   2.052626   3.250391  -2.658872   1.223462  -1.277422   1.999216   0.543331   2.717727  -3.480866   2.621263  10.956158   2.454309  24.842131   0.230357  16.274429  -0.116301   2.201419   0.016861  -2.709713   0.939099  -4.201969  -9.468142  10.879730  -5.924822 -20.668638   0.493850 -28.630513   0.221462   1.636658  -0.097475   4.268274  -5.594243  -0.722081   5.293120  11.009381  -0.004984   0.031955  -3.532917   0.615860   0.340325  -0.979769   0.000731  -0.002633   2.721192  -0.623043   4.505551  24.890935   0.013773   0.063032 -17.280496   1.163995  -3.099692  -4.367753  -0.001709  -0.014943
 -2.383421   0.907486   3.972774  -4.459099   7.638304  -3.660214   3.111566  -3.385444   2.447542   3.540437  -2.941856   1.356407  -1.493052   2.105105   0.509711   3.044137  -3.612313   2.796473  12.046542   2.915918  26.947621   0.223086  17.837465  -0.115848   2.394942   0.194873  -2.266582   1.048402  -4.634606 -10.115768  11.562448  -6.693863 -22.485346   0.487641 -31.279921   0.220729   1.812568  -0.630117   3.934267  -6.305122  -0.919627   6.112569  12.941213  -0.004275   0.035006  -3.026434   0.618148   0.387559  -1.023581   0.000664  -0.002309   3.044487  -0.735696   5.425593  26.096391   0.012217   0.054798 -18.278658   1.307198  -3.254227  -7.360514   0.000241  -0.027001
 -2.384750   0.904477   3.972573  -4.737236   8.087172  -4.260745   3.420748  -3.586963   2.708599   3.809456  -3.179173   1.464876  -1.689915   2.205289   0.483652   3.348515  -3.735323   2.954055  13.048417   3.389458  28.919137   0.211989  19.302492  -0.112283   2.579473   0.384947  -1.810597   1.155072  -5.017214 -10.666837  12.186689  -7.414727 -24.155452   0.473911 -33.749860   0.216271   1.975379  -1.125914   3.608842  -6.817985  -1.116037   6.861430  14.456618  -0.003591   0.033730  -2.826577   0.611103   0.462282  -0.955549   0.000419  -0.001607   3.185781  -0.808435   6.247739  27.194176   0.010776   0.047202 -19.170857   1.501671  -3.378309  -9.591625   0.002445  -0.032273
